# 3ds Max Wavefront OBJ Exporter v0.97b - (c)2007 guruware
# File Created: 14.11.2017 22:44:50

mtllib edificio01.mtl

#
# object Edificio_3
#

v  -1.6255 -0.0035 4.8764
v  -4.8764 -0.0035 4.8764
v  -4.8764 -0.0035 -4.8764
v  -1.6255 -0.0035 -4.8764
v  -1.6255 9.7494 4.8764
v  1.6255 9.7494 4.8764
v  1.8057 10.2937 5.4172
v  -1.8057 10.2937 5.4172
v  -1.2988 8.0235 4.8764
v  1.2988 8.0235 4.8764
v  1.2988 8.0235 4.5894
v  -1.2988 8.0235 4.5894
v  -4.8764 7.6968 4.8764
v  -4.8764 9.7494 4.8764
v  -4.8764 9.7494 -4.8764
v  -4.8764 7.6968 -4.8764
v  1.6255 7.6968 -4.8764
v  1.6255 9.7494 -4.8764
v  4.8764 9.7494 -4.8764
v  4.8764 7.6968 -4.8764
v  4.8764 2.8204 4.8764
v  4.8764 -0.0035 4.8764
v  4.8764 -0.0035 -4.8764
v  4.8764 2.8204 -4.8764
v  4.8764 9.7494 4.8764
v  4.8764 7.6968 4.8764
v  4.8764 5.2586 4.8764
v  4.8764 5.2586 -4.8764
v  1.6255 -0.0035 -4.8764
v  1.6255 2.8204 -4.8764
v  1.6255 5.2586 -4.8764
v  -4.8764 2.8204 4.8764
v  -4.8764 2.8204 -4.8764
v  -4.8764 5.2586 4.8764
v  -4.8764 5.2586 -4.8764
v  -1.6255 2.8204 4.8764
v  1.2283 5.6558 4.8764
v  1.2283 7.2996 4.8764
v  1.2283 7.2996 4.5894
v  1.2283 5.6558 4.5894
v  4.5498 7.3702 4.8764
v  1.9521 7.3702 4.8764
v  1.9521 7.3702 4.5894
v  4.5498 7.3702 4.5894
v  -1.2283 7.2996 4.8764
v  -1.2283 7.2996 4.5894
v  1.2988 4.9320 4.8764
v  -1.2988 4.9320 4.8764
v  -1.2988 4.9320 4.5894
v  1.2988 4.9320 4.5894
v  2.0227 8.0941 4.8764
v  4.4792 8.0941 4.8764
v  4.4792 8.0941 4.5894
v  2.0227 8.0941 4.5894
v  1.9521 5.5853 4.8764
v  4.5498 5.5853 4.8764
v  4.5498 5.5853 4.5894
v  1.9521 5.5853 4.5894
v  1.6255 2.8204 4.8764
v  1.6255 -0.0035 4.8764
v  1.0463 -0.0000 4.8764
v  1.0463 2.4622 4.8764
v  1.0463 2.4622 4.3576
v  1.0463 -0.0000 4.3576
v  -1.6255 7.6968 -4.8764
v  -1.6255 5.2586 -4.8764
v  -1.6255 2.8204 -4.8764
v  -1.6255 9.7494 -4.8764
v  -1.2283 5.6558 4.8764
v  -1.2283 5.6558 4.5894
v  -1.2988 3.1471 4.8764
v  1.2988 3.1471 4.8764
v  1.2988 3.1471 4.5894
v  -1.2988 3.1471 4.5894
v  -5.4172 10.2937 5.4172
v  -5.4172 10.2937 -5.4172
v  -1.8057 10.2937 -5.4172
v  1.8057 10.2937 -5.4172
v  -1.0921 -0.0000 4.8764
v  -1.0921 2.4622 4.8764
v  4.4792 9.3521 4.8764
v  -4.4792 3.2176 4.8764
v  -4.4792 4.8614 4.8764
v  -2.0227 3.2176 4.8764
v  -2.0227 4.8614 4.8764
v  -1.6255 5.2586 4.8764
v  2.0227 9.3521 4.8764
v  1.6255 5.2586 4.8764
v  1.6255 7.6968 4.8764
v  -1.6255 7.6968 4.8764
v  -4.5023 8.0710 4.8764
v  -4.5023 9.3752 4.8764
v  -1.9996 9.3752 4.8764
v  4.5023 4.8845 4.8764
v  4.5023 3.1946 4.8764
v  -1.9996 8.0710 4.8764
v  1.9996 3.1946 4.8764
v  1.9996 4.8845 4.8764
v  -4.5498 5.5853 4.8764
v  -4.5498 7.3702 4.8764
v  -1.9521 5.5853 4.8764
v  -1.9521 7.3702 4.8764
v  -1.2988 9.4227 4.8764
v  1.2988 9.4227 4.8764
v  -1.9996 8.0710 4.5894
v  -1.9996 9.3752 4.5894
v  -4.5023 9.3752 4.5894
v  -4.5023 8.0710 4.5894
v  -2.0227 3.2176 4.5894
v  -2.0227 4.8614 4.5894
v  -4.4792 4.8614 4.5894
v  -4.4792 3.2176 4.5894
v  -1.9521 5.5853 4.5894
v  -1.9521 7.3702 4.5894
v  -4.5498 7.3702 4.5894
v  -4.5498 5.5853 4.5894
v  4.5023 3.1946 4.5894
v  4.5023 4.8845 4.5894
v  1.9996 4.8845 4.5894
v  1.9996 3.1946 4.5894
v  4.4792 9.3521 4.5894
v  2.0227 9.3521 4.5894
v  1.2988 9.4227 4.5894
v  -1.2988 9.4227 4.5894
v  -1.0921 2.4622 4.3576
v  -1.0921 -0.0000 4.3576
v  5.4172 10.2937 -5.4172
v  1.8057 10.7400 -5.4172
v  5.4172 10.7400 -5.4172
v  1.8057 10.7400 5.4172
v  -1.8057 10.7400 5.4172
v  -1.8057 10.7400 -5.4172
v  5.4172 10.2937 5.4172
v  -4.8550 10.7400 -4.8550
v  -4.8550 10.7400 4.8550
v  -4.8550 10.3160 4.8550
v  -4.8550 10.3160 -4.8550
v  1.8057 10.7400 4.8550
v  4.8550 10.7400 4.8550
v  4.8550 10.3160 4.8550
v  1.8057 10.3160 4.8550
v  -1.8057 10.7400 -4.8550
v  -1.8057 10.3160 -4.8550
v  5.4172 10.7400 5.4172
v  -5.4172 10.7400 -5.4172
v  -5.4172 10.7400 5.4172
v  -1.8057 10.7400 4.8550
v  4.8550 10.7400 -4.8550
v  1.8057 10.7400 -4.8550
v  -1.8057 10.3160 4.8550
v  4.8550 10.3160 -4.8550
v  1.8057 10.3160 -4.8550
# 152 vertices

vn -0.0000 -1.0000 -0.0000
vn -0.0000 -0.7048 0.7094
vn 0.0000 1.0000 0.0000
vn -1.0000 -0.0000 -0.0000
vn 0.0000 -0.0000 -1.0000
vn 1.0000 0.0000 0.0000
vn 1.0000 -0.0000 0.0000
vn 0.0000 0.0000 -1.0000
vn -1.0000 0.0000 -0.0000
vn 0.0000 0.0000 1.0000
vn -0.0000 -0.0000 1.0000
vn -0.0000 -0.0000 -1.0000
vn -0.7094 -0.7048 -0.0000
vn -0.0000 -0.7048 -0.7094
vn 0.0000 -0.0000 1.0000
vn -0.0000 0.0000 1.0000
vn -0.0000 -1.0000 0.0000
vn -1.0000 0.0000 0.0000
vn 1.0000 -0.0000 -0.0000
vn 0.0000 1.0000 -0.0000
vn 0.0000 -0.7048 -0.7094
vn 0.7094 -0.7048 0.0000
# 22 vertex normals

vt 0.9894 0.8787 0.0000
vt 0.9894 0.9768 0.0000
vt 0.6953 0.9768 0.0000
vt 0.6953 0.8787 0.0000
vt 0.8991 0.5497 0.0000
vt 0.8991 0.4517 0.0000
vt 0.9156 0.4462 0.0000
vt 0.9156 0.5552 0.0000
vt 0.5758 0.5329 0.0000
vt 0.5758 0.4546 0.0000
vt 0.5845 0.4546 0.0000
vt 0.5845 0.5329 0.0000
vt 0.4733 0.0182 0.0000
vt 0.5363 0.0182 0.0000
vt 0.5363 0.3123 0.0000
vt 0.4733 0.3123 0.0000
vt 0.6359 0.1162 0.0000
vt 0.5740 0.1162 0.0000
vt 0.5740 0.0182 0.0000
vt 0.6359 0.0182 0.0000
vt 0.3262 0.3123 0.0000
vt 0.2411 0.3123 0.0000
vt 0.2411 0.0182 0.0000
vt 0.3262 0.0182 0.0000
vt 0.3998 0.3123 0.0000
vt 0.3998 0.0182 0.0000
vt 0.8682 0.1162 0.0000
vt 0.7830 0.1162 0.0000
vt 0.7830 0.0182 0.0000
vt 0.8682 0.0182 0.0000
vt 0.7094 0.1162 0.0000
vt 0.7094 0.0182 0.0000
vt 0.0020 0.5456 0.0000
vt 0.0872 0.5456 0.0000
vt 0.0872 0.6437 0.0000
vt 0.0020 0.6437 0.0000
vt 0.5059 0.4490 0.0000
vt 0.5555 0.4490 0.0000
vt 0.5555 0.4577 0.0000
vt 0.5059 0.4577 0.0000
vt 0.5646 0.3476 0.0000
vt 0.5646 0.4260 0.0000
vt 0.5559 0.4260 0.0000
vt 0.5559 0.3476 0.0000
vt 0.5642 0.4577 0.0000
vt 0.5642 0.5318 0.0000
vt 0.5555 0.5318 0.0000
vt 0.4892 0.4546 0.0000
vt 0.4892 0.5329 0.0000
vt 0.4806 0.5329 0.0000
vt 0.4806 0.4546 0.0000
vt 0.5782 0.4249 0.0000
vt 0.5782 0.3508 0.0000
vt 0.5868 0.3508 0.0000
vt 0.5868 0.4249 0.0000
vt 0.4934 0.4260 0.0000
vt 0.4934 0.3476 0.0000
vt 0.5021 0.3476 0.0000
vt 0.5021 0.4260 0.0000
vt 0.0020 0.3495 0.0000
vt 0.0872 0.3495 0.0000
vt 0.0872 0.4476 0.0000
vt 0.0020 0.4476 0.0000
vt 0.1581 0.2019 0.0000
vt 0.1581 0.2762 0.0000
vt 0.1425 0.2762 0.0000
vt 0.1425 0.2019 0.0000
vt 0.7094 0.3123 0.0000
vt 0.6359 0.3123 0.0000
vt 0.6359 0.2143 0.0000
vt 0.7094 0.2143 0.0000
vt 0.7830 0.3123 0.0000
vt 0.7830 0.2143 0.0000
vt 0.8682 0.3123 0.0000
vt 0.8682 0.2143 0.0000
vt 0.5740 0.3123 0.0000
vt 0.5740 0.2143 0.0000
vt 0.4973 0.5318 0.0000
vt 0.4973 0.4577 0.0000
vt 0.5059 0.5318 0.0000
vt 0.4181 0.5329 0.0000
vt 0.4181 0.4546 0.0000
vt 0.4267 0.4546 0.0000
vt 0.4267 0.5329 0.0000
vt 0.9440 0.3164 0.0000
vt 0.9440 0.0222 0.0000
vt 0.9604 0.0059 0.0000
vt 0.9604 0.3327 0.0000
vt 0.9733 0.4535 0.0000
vt 0.9733 0.5516 0.0000
vt 0.9568 0.5570 0.0000
vt 0.9568 0.4481 0.0000
vt 0.9894 0.6826 0.0000
vt 0.9894 0.7807 0.0000
vt 0.6953 0.7807 0.0000
vt 0.6953 0.6826 0.0000
vt 0.0021 0.4650 0.0000
vt 0.0021 0.5295 0.0000
vt 0.0764 0.5295 0.0000
vt 0.0764 0.4650 0.0000
vt 0.2842 0.3615 0.0000
vt 0.2462 0.3615 0.0000
vt 0.2343 0.3495 0.0000
vt 0.2962 0.3495 0.0000
vt 0.0992 0.6317 0.0000
vt 0.1487 0.6317 0.0000
vt 0.1607 0.6437 0.0000
vt 0.0992 0.5576 0.0000
vt 0.1487 0.5576 0.0000
vt 0.1607 0.5456 0.0000
vt 0.2842 0.4356 0.0000
vt 0.2962 0.4476 0.0000
vt 0.1727 0.4596 0.0000
vt 0.1727 0.5336 0.0000
vt 0.1607 0.4476 0.0000
vt 0.2462 0.4356 0.0000
vt 0.2343 0.4476 0.0000
vt 0.2223 0.5336 0.0000
vt 0.2223 0.4596 0.0000
vt 0.2343 0.5456 0.0000
vt 0.2455 0.6324 0.0000
vt 0.2849 0.6324 0.0000
vt 0.2962 0.6437 0.0000
vt 0.2343 0.6437 0.0000
vt 0.2849 0.5569 0.0000
vt 0.2962 0.5456 0.0000
vt 0.1494 0.3608 0.0000
vt 0.0985 0.3608 0.0000
vt 0.1607 0.3495 0.0000
vt 0.2455 0.5569 0.0000
vt 0.0985 0.4363 0.0000
vt 0.1494 0.4363 0.0000
vt 0.2244 0.3594 0.0000
vt 0.1706 0.3594 0.0000
vt 0.1706 0.6338 0.0000
vt 0.2244 0.6338 0.0000
vt 0.1706 0.5555 0.0000
vt 0.2244 0.5555 0.0000
vt 0.2863 0.5358 0.0000
vt 0.2863 0.4574 0.0000
vt 0.0970 0.4574 0.0000
vt 0.0970 0.5358 0.0000
vt 0.1706 0.4377 0.0000
vt 0.1509 0.5358 0.0000
vt 0.1509 0.4574 0.0000
vt 0.2244 0.4377 0.0000
vt 0.2441 0.4574 0.0000
vt 0.2441 0.5358 0.0000
vt 0.6347 0.5754 0.0000
vt 0.6347 0.6147 0.0000
vt 0.5592 0.6147 0.0000
vt 0.5592 0.5754 0.0000
vt 0.4250 0.5654 0.0000
vt 0.4250 0.6150 0.0000
vt 0.3509 0.6150 0.0000
vt 0.3509 0.5654 0.0000
vt 0.5321 0.5654 0.0000
vt 0.5321 0.6192 0.0000
vt 0.4538 0.6192 0.0000
vt 0.4538 0.5654 0.0000
vt 0.4714 0.3591 0.0000
vt 0.4714 0.4101 0.0000
vt 0.3959 0.4101 0.0000
vt 0.3959 0.3591 0.0000
vt 0.6248 0.3508 0.0000
vt 0.6248 0.4249 0.0000
vt 0.6267 0.4546 0.0000
vt 0.6267 0.5329 0.0000
vt 0.5555 0.5404 0.0000
vt 0.5059 0.5404 0.0000
vt 0.5559 0.4346 0.0000
vt 0.5021 0.4346 0.0000
vt 0.4336 0.5654 0.0000
vt 0.4336 0.6150 0.0000
vt 0.5506 0.6147 0.0000
vt 0.5506 0.5754 0.0000
vt 0.5408 0.5654 0.0000
vt 0.5408 0.6192 0.0000
vt 0.6248 0.4335 0.0000
vt 0.5868 0.4335 0.0000
vt 0.6347 0.6233 0.0000
vt 0.5592 0.6234 0.0000
vt 0.4267 0.4459 0.0000
vt 0.4806 0.4459 0.0000
vt 0.4801 0.3591 0.0000
vt 0.4801 0.4101 0.0000
vt 0.4806 0.5416 0.0000
vt 0.4267 0.5416 0.0000
vt 0.5021 0.3390 0.0000
vt 0.5559 0.3390 0.0000
vt 0.5868 0.3421 0.0000
vt 0.6248 0.3421 0.0000
vt 0.5592 0.5667 0.0000
vt 0.6347 0.5667 0.0000
vt 0.5845 0.4459 0.0000
vt 0.6267 0.4459 0.0000
vt 0.4451 0.6192 0.0000
vt 0.4451 0.5654 0.0000
vt 0.3422 0.6150 0.0000
vt 0.3422 0.5654 0.0000
vt 0.3959 0.3505 0.0000
vt 0.4714 0.3505 0.0000
vt 0.6267 0.5416 0.0000
vt 0.5845 0.5416 0.0000
vt 0.4538 0.5567 0.0000
vt 0.5321 0.5567 0.0000
vt 0.3509 0.5568 0.0000
vt 0.4250 0.5568 0.0000
vt 0.4714 0.4187 0.0000
vt 0.3959 0.4187 0.0000
vt 0.5321 0.6279 0.0000
vt 0.4538 0.6279 0.0000
vt 0.4250 0.6237 0.0000
vt 0.3509 0.6237 0.0000
vt 0.3873 0.4101 0.0000
vt 0.3873 0.3591 0.0000
vt 0.6353 0.4546 0.0000
vt 0.6353 0.5329 0.0000
vt 0.6334 0.3508 0.0000
vt 0.6334 0.4249 0.0000
vt 0.6434 0.5754 0.0000
vt 0.6434 0.6147 0.0000
vt 0.0780 0.2762 0.0000
vt 0.0780 0.2019 0.0000
vt 0.0780 0.1862 0.0000
vt 0.1425 0.1862 0.0000
vt 0.0623 0.2762 0.0000
vt 0.0623 0.2019 0.0000
vt 0.1425 0.2918 0.0000
vt 0.0780 0.2918 0.0000
vt 0.9568 0.3392 0.0000
vt 0.9434 0.4481 0.0000
vt 0.9434 0.3392 0.0000
vt 0.9290 0.4462 0.0000
vt 0.9290 0.5552 0.0000
vt 0.9434 0.5570 0.0000
vt 0.8991 0.6478 0.0000
vt 0.9156 0.6641 0.0000
vt 0.9733 0.3555 0.0000
vt 0.9733 0.6497 0.0000
vt 0.9568 0.6660 0.0000
vt 0.8998 0.3199 0.0000
vt 0.8998 0.0257 0.0000
vt 0.9162 0.0094 0.0000
vt 0.9162 0.3362 0.0000
vt 0.8991 0.3536 0.0000
vt 0.9156 0.3373 0.0000
vt 0.0089 0.9785 0.0000
vt 0.0089 0.6856 0.0000
vt 0.0217 0.6856 0.0000
vt 0.0217 0.9785 0.0000
vt 0.2226 0.6728 0.0000
vt 0.3146 0.6728 0.0000
vt 0.3146 0.6856 0.0000
vt 0.2226 0.6856 0.0000
vt 0.1137 0.9912 0.0000
vt 0.0217 0.9912 0.0000
vt 0.1137 0.9785 0.0000
vt 0.9297 0.0094 0.0000
vt 0.9297 0.3362 0.0000
vt 0.9434 0.6660 0.0000
vt 0.9290 0.3373 0.0000
vt 0.9738 0.0059 0.0000
vt 0.9738 0.3327 0.0000
vt 0.9290 0.6641 0.0000
vt 0.4593 0.6756 0.0000
vt 0.3673 0.6756 0.0000
vt 0.3504 0.6586 0.0000
vt 0.4593 0.6586 0.0000
vt 0.6602 0.9684 0.0000
vt 0.6602 0.6756 0.0000
vt 0.6772 0.6586 0.0000
vt 0.6772 0.9854 0.0000
vt 0.3673 0.9684 0.0000
vt 0.3504 0.9854 0.0000
vt 0.5682 0.9684 0.0000
vt 0.5682 0.9854 0.0000
vt 0.5682 0.6756 0.0000
vt 0.5682 0.6586 0.0000
vt 0.4593 0.9684 0.0000
vt 0.4593 0.9854 0.0000
vt 0.1137 0.6856 0.0000
vt 0.3146 0.9785 0.0000
vt 0.2226 0.9785 0.0000
vt 0.0217 0.6728 0.0000
vt 0.1137 0.6728 0.0000
vt 0.2226 0.9912 0.0000
vt 0.3146 0.9912 0.0000
vt 0.3273 0.6856 0.0000
vt 0.3273 0.9785 0.0000
# 290 texture coords

g Edificio_3
usemtl Edificio_1_textura
f 1/1/1 2/2/1 3/3/1 
f 3/3/1 4/4/1 1/1/1 
f 5/5/2 6/6/2 7/7/2 
f 7/7/2 8/8/2 5/5/2 
f 9/9/3 10/10/3 11/11/3 
f 11/11/3 12/12/3 9/9/3 
f 13/13/4 14/14/4 15/15/4 
f 15/15/4 16/16/4 13/13/4 
f 17/17/5 18/18/5 19/19/5 
f 19/19/5 20/20/5 17/17/5 
f 21/21/6 22/22/6 23/23/6 
f 23/23/6 24/24/6 21/21/6 
f 25/15/7 26/16/7 20/13/7 
f 20/13/7 19/14/7 25/15/7 
f 26/16/6 27/25/6 28/26/6 
f 28/26/6 20/13/6 26/16/6 
f 27/25/6 21/21/6 24/24/6 
f 24/24/6 28/26/6 27/25/6 
f 29/27/8 30/28/8 24/29/8 
f 24/29/8 23/30/8 29/27/8 
f 30/28/8 31/31/8 28/32/8 
f 28/32/8 24/29/8 30/28/8 
f 31/31/5 17/17/5 20/20/5 
f 20/20/5 28/32/5 31/31/5 
f 2/23/4 32/24/4 33/21/4 
f 33/21/4 3/22/4 2/23/4 
f 32/24/4 34/26/4 35/25/4 
f 35/25/4 33/21/4 32/24/4 
f 34/26/9 13/13/9 16/16/9 
f 16/16/9 35/25/9 34/26/9 
f 1/33/10 36/34/10 32/35/10 
f 32/35/10 2/36/10 1/33/10 
f 37/37/9 38/38/9 39/39/9 
f 39/39/9 40/40/9 37/37/9 
f 41/41/1 42/42/1 43/43/1 
f 43/43/1 44/44/1 41/41/1 
f 38/45/1 45/46/1 46/47/1 
f 46/47/1 39/39/1 38/45/1 
f 47/48/1 48/49/1 49/50/1 
f 49/50/1 50/51/1 47/48/1 
f 51/52/3 52/53/3 53/54/3 
f 53/54/3 54/55/3 51/52/3 
f 55/56/3 56/57/3 57/58/3 
f 57/58/3 58/59/3 55/56/3 
f 22/60/11 21/61/11 59/62/11 
f 59/62/11 60/63/11 22/60/11 
f 61/64/4 62/65/4 63/66/4 
f 63/66/4 64/67/4 61/64/4 
f 35/68/8 16/69/8 65/70/8 
f 65/70/8 66/71/8 35/68/8 
f 66/71/8 65/70/8 17/17/8 
f 17/17/8 31/31/8 66/71/8 
f 33/72/8 35/68/8 66/71/8 
f 66/71/8 67/73/8 33/72/8 
f 67/73/5 66/71/5 31/31/5 
f 31/31/5 30/28/5 67/73/5 
f 3/74/8 33/72/8 67/73/8 
f 67/73/8 4/75/8 3/74/8 
f 4/75/8 67/73/8 30/28/8 
f 30/28/8 29/27/8 4/75/8 
f 16/69/12 15/76/12 68/77/12 
f 68/77/12 65/70/12 16/69/12 
f 65/70/5 68/77/5 18/18/5 
f 18/18/5 17/17/5 65/70/5 
f 69/78/3 37/79/3 40/40/3 
f 40/40/3 70/80/3 69/78/3 
f 71/81/3 72/82/3 73/83/3 
f 73/83/3 74/84/3 71/81/3 
f 15/85/13 14/86/13 75/87/13 
f 75/87/13 76/88/13 15/85/13 
f 18/89/14 68/90/14 77/91/14 
f 77/91/14 78/92/14 18/89/14 
f 22/93/1 60/94/1 29/95/1 
f 29/95/1 23/96/1 22/93/1 
f 60/94/1 1/1/1 4/4/1 
f 4/4/1 29/95/1 60/94/1 
f 61/97/15 79/98/15 1/33/15 
f 1/33/15 60/63/15 61/97/15 
f 80/99/11 62/100/11 59/62/11 
f 59/62/11 36/34/11 80/99/11 
f 62/100/15 61/97/15 60/63/15 
f 60/63/15 59/62/15 62/100/15 
f 79/98/10 80/99/10 36/34/10 
f 36/34/10 1/33/10 79/98/10 
f 81/101/11 52/102/11 26/103/11 
f 26/103/11 25/104/11 81/101/11 
f 82/105/10 83/106/10 34/107/10 
f 34/107/10 32/35/10 82/105/10 
f 84/108/16 82/105/16 32/35/16 
f 32/35/16 36/34/16 84/108/16 
f 83/106/16 85/109/16 86/110/16 
f 86/110/16 34/107/16 83/106/16 
f 87/111/11 81/101/11 25/104/11 
f 25/104/11 6/112/11 87/111/11 
f 37/113/11 69/114/11 86/110/11 
f 86/110/11 88/115/11 37/113/11 
f 52/102/11 51/116/11 89/117/11 
f 89/117/11 26/103/11 52/102/11 
f 45/118/11 38/119/11 89/117/11 
f 89/117/11 90/120/11 45/118/11 
f 38/119/11 37/113/11 88/115/11 
f 88/115/11 89/117/11 38/119/11 
f 69/114/11 45/118/11 90/120/11 
f 90/120/11 86/110/11 69/114/11 
f 85/109/15 84/108/15 36/34/15 
f 36/34/15 86/110/15 85/109/15 
f 51/116/15 87/111/15 6/112/15 
f 6/112/15 89/117/15 51/116/15 
f 91/121/10 92/122/10 14/123/10 
f 14/123/10 13/124/10 91/121/10 
f 92/122/16 93/125/16 5/126/16 
f 5/126/16 14/123/16 92/122/16 
f 94/127/11 95/128/11 21/61/11 
f 21/61/11 27/129/11 94/127/11 
f 96/130/16 91/121/16 13/124/16 
f 13/124/16 90/120/16 96/130/16 
f 95/128/11 97/131/11 59/62/11 
f 59/62/11 21/61/11 95/128/11 
f 98/132/11 94/127/11 27/129/11 
f 27/129/11 88/115/11 98/132/11 
f 97/131/15 98/132/15 88/115/15 
f 88/115/15 59/62/15 97/131/15 
f 93/125/15 96/130/15 90/120/15 
f 90/120/15 5/126/15 93/125/15 
f 41/133/11 56/134/11 27/129/11 
f 27/129/11 26/103/11 41/133/11 
f 99/135/16 100/136/16 13/124/16 
f 13/124/16 34/107/16 99/135/16 
f 101/137/16 99/135/16 34/107/16 
f 34/107/16 86/110/16 101/137/16 
f 100/136/16 102/138/16 90/120/16 
f 90/120/16 13/124/16 100/136/16 
f 103/139/16 104/140/16 6/112/16 
f 6/112/16 5/126/16 103/139/16 
f 72/141/11 71/142/11 36/34/11 
f 36/34/11 59/62/11 72/141/11 
f 56/134/11 55/143/11 88/115/11 
f 88/115/11 27/129/11 56/134/11 
f 48/144/11 47/145/11 88/115/11 
f 88/115/11 86/110/11 48/144/11 
f 42/146/11 41/133/11 26/103/11 
f 26/103/11 89/117/11 42/146/11 
f 10/147/11 9/148/11 90/120/11 
f 90/120/11 89/117/11 10/147/11 
f 55/143/11 42/146/11 89/117/11 
f 89/117/11 88/115/11 55/143/11 
f 102/138/11 101/137/11 86/110/11 
f 86/110/11 90/120/11 102/138/11 
f 47/145/15 72/141/15 59/62/15 
f 59/62/15 88/115/15 47/145/15 
f 71/142/11 48/144/11 86/110/11 
f 86/110/11 36/34/11 71/142/11 
f 104/140/11 10/147/11 89/117/11 
f 89/117/11 6/112/11 104/140/11 
f 9/148/11 103/139/11 5/126/11 
f 5/126/11 90/120/11 9/148/11 
f 105/149/16 106/150/16 107/151/16 
f 107/151/16 108/152/16 105/149/16 
f 109/153/16 110/154/16 111/155/16 
f 111/155/16 112/156/16 109/153/16 
f 113/157/11 114/158/11 115/159/11 
f 115/159/11 116/160/11 113/157/11 
f 57/58/11 44/44/11 43/43/11 
f 43/43/11 58/59/11 57/58/11 
f 40/40/11 39/39/11 46/47/11 
f 46/47/11 70/80/11 40/40/11 
f 117/161/11 118/162/11 119/163/11 
f 119/163/11 120/164/11 117/161/11 
f 73/83/11 50/51/11 49/50/11 
f 49/50/11 74/84/11 73/83/11 
f 53/54/11 121/165/11 122/166/11 
f 122/166/11 54/55/11 53/54/11 
f 11/11/11 123/167/11 124/168/11 
f 124/168/11 12/12/11 11/11/11 
f 45/169/6 69/170/6 70/80/6 
f 70/80/6 46/47/6 45/169/6 
f 42/171/6 55/172/6 58/59/6 
f 58/59/6 43/43/6 42/171/6 
f 84/173/4 85/174/4 110/154/4 
f 110/154/4 109/153/4 84/173/4 
f 92/175/6 91/176/6 108/152/6 
f 108/152/6 107/151/6 92/175/6 
f 101/177/4 102/178/4 114/158/4 
f 114/158/4 113/157/4 101/177/4 
f 87/179/6 51/180/6 54/55/6 
f 54/55/6 122/166/6 87/179/6 
f 93/181/17 92/182/17 107/151/17 
f 107/151/17 106/150/17 93/181/17 
f 72/183/4 47/184/4 50/51/4 
f 50/51/4 73/83/4 72/183/4 
f 95/185/4 94/186/4 118/162/4 
f 118/162/4 117/161/4 95/185/4 
f 48/187/6 71/188/6 74/84/6 
f 74/84/6 49/50/6 48/187/6 
f 56/189/4 41/190/4 44/44/4 
f 44/44/4 57/58/4 56/189/4 
f 52/191/18 81/192/18 121/165/18 
f 121/165/18 53/54/18 52/191/18 
f 91/193/3 96/194/3 105/149/3 
f 105/149/3 108/152/3 91/193/3 
f 10/195/4 104/196/4 123/167/4 
f 123/167/4 11/11/4 10/195/4 
f 100/197/6 99/198/6 116/160/6 
f 116/160/6 115/159/6 100/197/6 
f 83/199/19 82/200/19 112/156/19 
f 112/156/19 111/155/19 83/199/19 
f 97/201/20 95/202/20 117/161/20 
f 117/161/20 120/164/20 97/201/20 
f 103/203/6 9/204/6 12/12/6 
f 12/12/6 124/168/6 103/203/6 
f 99/205/3 101/206/3 113/157/3 
f 113/157/3 116/160/3 99/205/3 
f 82/207/3 84/208/3 109/153/3 
f 109/153/3 112/156/3 82/207/3 
f 94/209/1 98/210/1 119/163/1 
f 119/163/1 118/162/1 94/209/1 
f 102/211/17 100/212/17 115/159/17 
f 115/159/17 114/158/17 102/211/17 
f 85/213/1 83/214/1 111/155/1 
f 111/155/1 110/154/1 85/213/1 
f 98/215/6 97/216/6 120/164/6 
f 120/164/6 119/163/6 98/215/6 
f 104/217/1 103/218/1 124/168/1 
f 124/168/1 123/167/1 104/217/1 
f 81/219/1 87/220/1 122/166/1 
f 122/166/1 121/165/1 81/219/1 
f 96/221/4 93/222/4 106/150/4 
f 106/150/4 105/149/4 96/221/4 
f 64/67/11 63/66/11 125/223/11 
f 125/223/11 126/224/11 64/67/11 
f 79/225/3 61/226/3 64/67/3 
f 64/67/3 126/224/3 79/225/3 
f 80/227/19 79/228/19 126/224/19 
f 126/224/19 125/223/19 80/227/19 
f 62/229/1 80/230/1 125/223/1 
f 125/223/1 63/66/1 62/229/1 
f 127/231/8 78/92/8 128/232/8 
f 128/232/8 129/233/8 127/231/8 
f 8/8/11 7/7/11 130/234/11 
f 130/234/11 131/235/11 8/8/11 
f 78/92/8 77/91/8 132/236/8 
f 132/236/8 128/232/8 78/92/8 
f 14/237/2 5/5/2 8/8/2 
f 8/8/2 75/238/2 14/237/2 
f 19/239/21 18/89/21 78/92/21 
f 78/92/21 127/231/21 19/239/21 
f 68/90/21 15/240/21 76/241/21 
f 76/241/21 77/91/21 68/90/21 
f 25/242/22 19/243/22 127/244/22 
f 127/244/22 133/245/22 25/242/22 
f 6/6/2 25/246/2 133/247/2 
f 133/247/2 7/7/2 6/6/2 
f 134/248/7 135/249/7 136/250/7 
f 136/250/7 137/251/7 134/248/7 
f 138/252/8 139/253/8 140/254/8 
f 140/254/8 141/255/8 138/252/8 
f 142/256/11 134/257/11 137/251/11 
f 137/251/11 143/258/11 142/256/11 
f 133/245/7 127/244/7 129/259/7 
f 129/259/7 144/260/7 133/245/7 
f 77/91/8 76/241/8 145/261/8 
f 145/261/8 132/236/8 77/91/8 
f 7/7/11 133/247/11 144/262/11 
f 144/262/11 130/234/11 7/7/11 
f 76/88/9 75/87/9 146/263/9 
f 146/263/9 145/264/9 76/88/9 
f 75/238/11 8/8/11 131/235/11 
f 131/235/11 146/265/11 75/238/11 
f 147/266/3 135/267/3 146/268/3 
f 146/268/3 131/269/3 147/266/3 
f 148/270/3 139/271/3 144/272/3 
f 144/272/3 129/273/3 148/270/3 
f 135/267/3 134/274/3 145/275/3 
f 145/275/3 146/268/3 135/267/3 
f 149/276/3 148/270/3 129/273/3 
f 129/273/3 128/277/3 149/276/3 
f 139/271/3 138/278/3 130/279/3 
f 130/279/3 144/272/3 139/271/3 
f 138/278/3 147/266/3 131/269/3 
f 131/269/3 130/279/3 138/278/3 
f 134/274/3 142/280/3 132/281/3 
f 132/281/3 145/275/3 134/274/3 
f 142/280/3 149/276/3 128/277/3 
f 128/277/3 132/281/3 142/280/3 
f 150/282/3 143/258/3 137/251/3 
f 137/251/3 136/250/3 150/282/3 
f 140/254/3 151/283/3 152/284/3 
f 152/284/3 141/255/3 140/254/3 
f 141/255/3 152/284/3 143/258/3 
f 143/258/3 150/282/3 141/255/3 
f 135/285/8 147/286/8 150/282/8 
f 150/282/8 136/250/8 135/285/8 
f 149/287/11 142/256/11 143/258/11 
f 143/258/11 152/284/11 149/287/11 
f 147/286/8 138/252/8 141/255/8 
f 141/255/8 150/282/8 147/286/8 
f 148/288/11 149/287/11 152/284/11 
f 152/284/11 151/283/11 148/288/11 
f 139/289/9 148/290/9 151/283/9 
f 151/283/9 140/254/9 139/289/9 
# 300 faces

